<svg width="70" height="49" viewBox="0 0 70 49" fill="none" xmlns="http://www.w3.org/2000/svg">
<rect x="0.5" y="1.32812" width="69" height="47" rx="5.5" fill="#1F72CD" stroke="#D9D9D9"/>
<path fill-rule="evenodd" clip-rule="evenodd" d="M12.5493 17.8281L6 32.3216H13.8405L14.8125 30.0107H17.0342L18.0062 32.3216H26.6364V30.5579L27.4054 32.3216H31.8696L32.6386 30.5206V32.3216H50.587L52.7695 30.0708L54.813 32.3216L64.0317 32.3403L57.4617 25.1153L64.0317 17.8281H54.956L52.8315 20.0374L50.8523 17.8281H31.3268L29.6501 21.569L27.9341 17.8281H20.11V19.5318L19.2396 17.8281H12.5493ZM39.3516 19.8862H49.6584L52.8108 23.2914L56.0648 19.8862H59.2172L54.4275 25.1133L59.2172 30.2801H55.9218L52.7695 26.8354L49.4989 30.2801H39.3516V19.8862ZM41.8968 23.9381V22.0395V22.0377H48.328L51.1342 25.0739L48.2036 28.1268H41.8968V26.0541H47.5197V23.9381H41.8968ZM14.0664 19.8862H17.8883L22.2324 29.7143V19.8862H26.4191L29.7745 26.9329L32.8668 19.8862H37.0326V30.2863H34.4978L34.4771 22.1369L30.7817 30.2863H28.5142L24.7981 22.1369V30.2863H19.5836L18.595 27.9547H13.254L12.2675 30.2842H9.47358L14.0664 19.8862ZM14.166 25.7993L15.9256 21.6459L17.6832 25.7993H14.166Z" fill="white"/>
</svg>
