<svg width="70" height="49" viewBox="0 0 70 49" fill="none" xmlns="http://www.w3.org/2000/svg">
<rect x="0.5" y="1.32812" width="69" height="47" rx="5.5" fill="white" stroke="#D9D9D9"/>
<path d="M29.4678 47.8281L68.9678 36.3281V42.8281C68.9678 45.5895 66.7292 47.8281 63.9678 47.8281H29.4678Z" fill="#FD6020"/>
<path d="M29.8516 20.0498C30.6122 20.0498 31.4819 20.1571 32.1338 20.5869V22.7363C31.5905 22.0916 30.7208 21.6621 29.8516 21.6621C28.1132 21.7698 26.7009 23.274 26.8096 24.9932V25.208C26.8098 26.9271 28.2226 28.2168 29.9609 28.2168C30.83 28.2167 31.5906 27.7862 32.1338 27.1416V29.291C31.3732 29.6134 30.6124 29.8281 29.7432 29.8281C27.0268 29.8281 24.8535 27.5711 24.8535 24.8848C24.8538 22.0913 27.0268 19.8351 29.8516 20.0498ZM46.9111 26.4971L49.5186 20.0498H51.4746L47.4541 29.8281H46.4766L42.4561 20.0498H44.4121L46.9111 26.4971ZM21.1592 19.835C22.1371 19.835 23.1154 20.2645 23.876 20.9092L22.8984 22.1992C22.4639 21.7695 21.9202 21.4464 21.377 21.4463C20.725 21.3388 20.1819 21.8768 20.0732 22.5215C20.0733 23.0586 20.399 23.2734 21.4854 23.7031C23.6585 24.5628 24.2019 25.2076 24.3105 26.4971V26.8193C24.2019 28.5386 22.7893 29.8282 21.0508 29.7207C19.7469 29.7207 18.4429 29.0755 17.791 27.8936L18.9863 26.7119C19.3123 27.4641 20.0731 28.001 20.9424 28.001H21.0508C21.7027 28.001 22.3545 27.3567 22.3545 26.6045C22.3545 26.1748 22.1374 25.8526 21.8115 25.6377C21.377 25.4228 20.9423 25.2081 20.5078 25.1006C18.7694 24.5633 18.2256 23.8108 18.2256 22.5215V22.4141C18.3342 20.9098 19.6381 19.7277 21.1592 19.835ZM9.85938 20.0498C12.4669 20.1573 14.5312 22.3061 14.4229 24.8848C14.4229 26.2817 13.7711 27.572 12.6846 28.5391C11.7068 29.2911 10.5115 29.7206 9.31641 29.6133H6.59961V20.0498H9.85938ZM17.0303 29.6133H15.1836V20.0498H17.0303V29.6133ZM57.5596 21.6621H54.1904V23.8105H57.4502V25.4229H54.1904V28.001H57.5596V29.6133H52.3438V20.0498H57.5596V21.6621ZM61.4707 20.0498C63.6435 20.0499 64.8389 21.0172 64.8389 22.8438C64.9474 24.2406 63.9689 25.4228 62.665 25.6377L65.5996 29.6133H63.3174L60.8184 25.7451H60.6006V29.6133H58.7539V20.0498H61.4707ZM11.4893 22.4141C10.8374 21.8769 9.85941 21.5538 8.99023 21.6611H8.44629V28.001H8.99023C9.85944 28.1084 10.8374 27.7863 11.4893 27.249C12.1411 26.6043 12.4668 25.7443 12.4668 24.7773C12.4667 23.918 12.1409 23.0586 11.4893 22.4141ZM60.6006 24.4551H61.1445C62.3395 24.455 62.8828 23.9181 62.8828 22.9512C62.8828 22.0916 62.3396 21.5538 61.1445 21.5537H60.6006V24.4551Z" fill="black"/>
<path fill-rule="evenodd" clip-rule="evenodd" d="M37.6749 19.8281C34.9585 19.8281 32.6768 21.9772 32.6768 24.771C32.6768 27.4574 34.8499 29.7139 37.6749 29.8213C40.5 29.9288 42.6731 27.6723 42.7817 24.8785C42.6731 22.0847 40.5 19.8281 37.6749 19.8281V19.8281Z" fill="#FD6020"/>
</svg>
