<svg width="23" height="24" viewBox="0 0 23 24" fill="none" xmlns="http://www.w3.org/2000/svg">
<path fill-rule="evenodd" clip-rule="evenodd" d="M2.55556 0.828125H20.4444C21.8559 0.828125 23 1.97229 23 3.38368V21.2726C23 22.684 21.8559 23.8281 20.4444 23.8281H2.55556C1.14416 23.8281 0 22.684 0 21.2726V3.38368C0 1.97229 1.14416 0.828125 2.55556 0.828125ZM6.38889 19.9948C6.74173 19.9948 7.02778 19.7087 7.02778 19.3559V10.4115C7.02778 10.0587 6.74173 9.77257 6.38889 9.77257H4.47222C4.11938 9.77257 3.83333 10.0587 3.83333 10.4115V19.3559C3.83333 19.7087 4.11938 19.9948 4.47222 19.9948H6.38889ZM5.43056 8.49479C4.37201 8.49479 3.51389 7.63667 3.51389 6.57812C3.51389 5.51958 4.37201 4.66146 5.43056 4.66146C6.48911 4.66146 7.34722 5.51958 7.34722 6.57812C7.34722 7.63667 6.48911 8.49479 5.43056 8.49479ZM18.5278 19.9948C18.8806 19.9948 19.1667 19.7087 19.1667 19.3559V13.4781C19.2082 11.4475 17.7069 9.71446 15.6911 9.4659C14.2817 9.33717 12.9162 9.99541 12.1389 11.1781V10.4115C12.1389 10.0587 11.8528 9.77257 11.5 9.77257H9.58333C9.23054 9.77257 8.94444 10.0587 8.94444 10.4115V19.3559C8.94444 19.7087 9.23054 19.9948 9.58333 19.9948H11.5C11.8528 19.9948 12.1389 19.7087 12.1389 19.3559V14.5642C12.1389 13.5057 12.997 12.6476 14.0556 12.6476C15.1141 12.6476 15.9722 13.5057 15.9722 14.5642V19.3559C15.9722 19.7087 16.2583 19.9948 16.6111 19.9948H18.5278Z" fill="white"/>
</svg>
