<svg width="23" height="23" viewBox="0 0 23 23" fill="none" xmlns="http://www.w3.org/2000/svg">
<path d="M22.9244 2.94792V20.0833C22.9244 21.4353 21.8284 22.5312 20.4764 22.5312H15.8864C15.5484 22.5312 15.2745 22.2573 15.2745 21.9192V14.5755H18.1386C18.4294 14.5756 18.6802 14.3709 18.7383 14.0859L19.179 11.8828C19.1972 11.7938 19.1749 11.7013 19.1182 11.6303C19.0613 11.5595 18.976 11.5174 18.8852 11.5156H15.2745V7.53777C15.2745 7.36877 15.4115 7.23177 15.5804 7.23177H18.6404C18.9785 7.23177 19.2524 6.95779 19.2524 6.6198V4.78386C19.2524 4.44587 18.9785 4.17188 18.6404 4.17188H15.5804C13.5525 4.17188 11.9085 5.81583 11.9085 7.84375V11.5156H10.403C10.065 11.5156 9.79099 11.7895 9.79099 12.1277V13.9636C9.79099 14.3016 10.065 14.5755 10.403 14.5755H11.9085V21.9192C11.9085 22.2573 11.6345 22.5312 11.2964 22.5312H3.34056C1.98857 22.5312 0.892578 21.4353 0.892578 20.0833V2.94792C0.892578 1.59597 1.98857 0.5 3.34056 0.5H20.4764C21.8284 0.5 22.9244 1.59597 22.9244 2.94792Z" fill="white"/>
</svg>
