<svg width="70" height="49" viewBox="0 0 70 49" fill="none" xmlns="http://www.w3.org/2000/svg">
<rect x="0.5" y="1.32812" width="69" height="47" rx="5.5" fill="white" stroke="#D9D9D9"/>
<path d="M44.3525 10.8281C51.8897 10.8282 57.9998 17.0091 58 24.6338C58 32.2586 51.8898 38.4404 44.3525 38.4404C40.9742 38.4404 37.8832 37.1975 35.5 35.1406C33.1168 37.1975 30.0258 38.4404 26.6475 38.4404C19.1102 38.4404 13 32.2586 13 24.6338C13.0002 17.0091 19.1103 10.8282 26.6475 10.8281C30.0254 10.8281 33.1169 12.0695 35.5 14.126C37.8831 12.0695 40.9746 10.8281 44.3525 10.8281Z" fill="#B20204"/>
<path d="M44.3525 10.8281C51.8897 10.8282 57.9998 17.0091 58 24.6338C58 32.2586 51.8898 38.4404 44.3525 38.4404C40.9742 38.4404 37.8832 37.1975 35.5 35.1406C38.434 32.6084 40.2949 28.8411 40.2949 24.6338C40.2948 20.4262 38.4344 16.6582 35.5 14.126C37.8831 12.0695 40.9746 10.8281 44.3525 10.8281Z" fill="#F9A000"/>
<path d="M35.5 14.1265C38.4344 16.6587 40.2949 20.4267 40.2949 24.6343C40.2949 28.8417 38.4341 32.6088 35.5 35.1411C32.566 32.6088 30.7051 28.8416 30.7051 24.6343C30.7051 20.4267 32.5657 16.6587 35.5 14.1265Z" fill="#FF5E00"/>
</svg>
