<svg width="70" height="49" viewBox="0 0 70 49" fill="none" xmlns="http://www.w3.org/2000/svg">
<rect x="0.5" y="1.32812" width="69" height="47" rx="5.5" fill="white" stroke="#D9D9D9"/>
<path fill-rule="evenodd" clip-rule="evenodd" d="M21.2505 33.3446H17.0099L13.8299 21.2129C13.679 20.6548 13.3585 20.1615 12.8871 19.9289C11.7106 19.3446 10.4142 18.8795 9 18.645V18.1779H15.8313C16.7742 18.1779 17.4813 18.8795 17.5991 19.6944L19.2491 28.4454L23.4877 18.1779H27.6104L21.2505 33.3446ZM29.9675 33.3446H25.9626L29.2604 18.1779H33.2653L29.9675 33.3446ZM38.4467 22.3796C38.5646 21.5627 39.2717 21.0956 40.0967 21.0956C41.3931 20.9783 42.8052 21.2129 43.9838 21.7952L44.6909 18.5297C43.5123 18.0627 42.216 17.8281 41.0395 17.8281C37.1524 17.8281 34.3239 19.9289 34.3239 22.8446C34.3239 25.0627 36.3274 26.2273 37.7417 26.929C39.2717 27.6286 39.861 28.0956 39.7431 28.7952C39.7431 29.8446 38.5646 30.3117 37.3881 30.3117C35.9739 30.3117 34.5596 29.9619 33.2653 29.3775L32.5582 32.645C33.9724 33.2274 35.5025 33.4619 36.9167 33.4619C41.2752 33.5772 43.9838 31.4784 43.9838 28.3282C43.9838 24.3611 38.4467 24.1285 38.4467 22.3796ZM58 33.3446L54.82 18.1779H51.4044C50.6972 18.1779 49.9901 18.645 49.7544 19.3446L43.8659 33.3446H47.9887L48.8116 31.1286H53.8772L54.3486 33.3446H58ZM51.9936 22.2623L53.1701 27.9784H49.8723L51.9936 22.2623Z" fill="#172B85"/>
</svg>
