<svg width="40" height="41" viewBox="0 0 40 41" fill="none" xmlns="http://www.w3.org/2000/svg">
<path d="M36.2565 19.7884C36.1219 15.3131 34.4923 11.5132 31.3676 8.38892C28.2429 5.26419 24.443 3.63456 19.9681 3.5V0C22.6903 0.0598889 25.2389 0.61775 27.6138 1.67358C29.9892 2.72981 32.0639 4.14478 33.838 5.9185C35.6117 7.69261 37.0265 9.76714 38.0823 12.1421C39.1386 14.5174 39.6966 17.0662 39.7565 19.7884H36.2565ZM26.9232 19.7884C26.7886 17.9186 26.0631 16.3219 24.7468 14.9981C23.4304 13.6747 21.8375 12.9531 19.9681 12.8333V9.33333C22.807 9.45311 25.2255 10.5158 27.2236 12.5213C29.2221 14.5271 30.2886 16.9495 30.4232 19.7884H26.9232ZM37.1939 40.25C32.7968 40.25 28.3792 39.2276 23.9412 37.1828C19.5036 35.1381 15.4226 32.2537 11.6982 28.5297C7.98895 24.8053 5.11194 20.7278 3.06717 16.2972C1.02239 11.8669 0 7.45325 0 3.05608C0 2.35608 0.233333 1.76886 0.7 1.29442C1.16667 0.820361 1.75 0.583333 2.45 0.583333H10.0602C10.6493 0.583333 11.1691 0.77564 11.6194 1.16025C12.0698 1.54447 12.3562 2.01931 12.4787 2.58475L13.8163 9.45C13.9088 10.087 13.8894 10.6344 13.7579 11.0921C13.6261 11.5498 13.3896 11.9342 13.0486 12.2453L7.65975 17.4912C8.52697 19.0795 9.51786 20.5819 10.6324 21.9987C11.7466 23.415 12.9529 24.7678 14.2514 26.0569C15.5316 27.3375 16.8928 28.5268 18.3348 29.6246C19.7768 30.7224 21.3339 31.744 23.0061 32.6894L28.2421 27.4079C28.6073 27.028 29.0494 26.7616 29.5686 26.6087C30.0874 26.4563 30.6266 26.419 31.1862 26.4968L37.6653 27.8163C38.2544 27.9718 38.7353 28.2724 39.1078 28.7181C39.4804 29.1637 39.6667 29.6693 39.6667 30.2347V37.8C39.6667 38.5 39.4296 39.0833 38.9556 39.55C38.4811 40.0167 37.8939 40.25 37.1939 40.25ZM6.00367 14.1797L10.1681 10.1949C10.2428 10.135 10.2914 10.0528 10.3139 9.94817C10.3365 9.84355 10.3328 9.74633 10.3028 9.6565L9.28842 4.44208C9.25847 4.3227 9.20617 4.23305 9.1315 4.17317C9.05683 4.11328 8.95961 4.08333 8.83983 4.08333H3.85C3.76017 4.08333 3.68531 4.11328 3.62542 4.17317C3.56592 4.23305 3.53617 4.30792 3.53617 4.39775C3.65556 5.9922 3.9165 7.61192 4.319 9.25692C4.72111 10.9023 5.28267 12.5432 6.00367 14.1797ZM26.3037 34.3449C27.8503 35.0659 29.4634 35.6172 31.143 35.9987C32.823 36.3798 34.3928 36.6063 35.8523 36.6783C35.9421 36.6783 36.0169 36.6483 36.0768 36.5884C36.1367 36.5285 36.1667 36.4537 36.1667 36.3638V31.4551C36.1667 31.3353 36.1367 31.2381 36.0768 31.1634C36.0169 31.0887 35.9273 31.0364 35.8079 31.0065L30.9079 30.0102C30.8181 29.9802 30.7395 29.9765 30.6723 29.9991C30.605 30.0216 30.5338 30.0703 30.4588 30.1449L26.3037 34.3449Z" fill="#B20204"/>
</svg>
