<svg width="51" height="36" viewBox="0 0 51 36" fill="none" xmlns="http://www.w3.org/2000/svg">
<path d="M14.9167 35.5C13.1367 35.5 11.6224 34.8754 10.3737 33.6263C9.12455 32.3776 8.49999 30.8633 8.49999 29.0833H2.98107L3.76157 25.5833H9.70282C10.2442 24.6947 10.9733 23.9866 11.8903 23.4588C12.8069 22.9307 13.8157 22.6667 14.9167 22.6667C16.0176 22.6667 17.0266 22.9307 17.9436 23.4588C18.8602 23.9866 19.5894 24.6947 20.1311 25.5833H30.3884L35.401 4H9.85099L9.99449 3.38983C10.1679 2.54011 10.5829 1.84614 11.2393 1.30792C11.8962 0.769304 12.6687 0.5 13.5569 0.5H39.7754L37.7518 9.25H43.5898L50.2532 18.1347L48.0768 29.0833H44.3972C44.3972 30.8633 43.7728 32.3776 42.5241 33.6263C41.275 34.8754 39.7606 35.5 37.9811 35.5C36.2011 35.5 34.6866 34.8754 33.4375 33.6263C32.1888 32.3776 31.5644 30.8633 31.5644 29.0833H21.3333C21.3333 30.8633 20.7088 32.3776 19.4597 33.6263C18.2109 34.8754 16.6966 35.5 14.9167 35.5ZM35.1134 20.625H46.1699L46.4931 18.9736L41.8398 12.75H36.9486L35.1134 20.625ZM35.0597 5.37317L35.401 4L30.3884 25.5833L30.7297 24.2102L32.6453 15.8732L35.0597 5.37317ZM0.535156 20.7102L1.41016 17.2102H13.0547L12.1797 20.7102H0.535156ZM5.20182 12.3732L6.07682 8.87317H20.0547L19.1797 12.3732H5.20182ZM14.9167 32C15.7275 32 16.4162 31.7165 16.9828 31.1495C17.5498 30.5829 17.8333 29.8942 17.8333 29.0833C17.8333 28.2725 17.5498 27.5838 16.9828 27.0172C16.4162 26.4502 15.7275 26.1667 14.9167 26.1667C14.1058 26.1667 13.4171 26.4502 12.8505 27.0172C12.2835 27.5838 12 28.2725 12 29.0833C12 29.8942 12.2835 30.5829 12.8505 31.1495C13.4171 31.7165 14.1058 32 14.9167 32ZM37.9811 32C38.7915 32 39.4802 31.7165 40.0472 31.1495C40.6142 30.5829 40.8977 29.8942 40.8977 29.0833C40.8977 28.2725 40.6142 27.5838 40.0472 27.0172C39.4802 26.4502 38.7915 26.1667 37.9811 26.1667C37.1702 26.1667 36.4813 26.4502 35.9143 27.0172C35.3473 27.5838 35.0638 28.2725 35.0638 29.0833C35.0638 29.8942 35.3473 30.5829 35.9143 31.1495C36.4813 31.7165 37.1702 32 37.9811 32Z" fill="#B20204"/>
</svg>
