<svg width="40" height="42" viewBox="0 0 40 42" fill="none" xmlns="http://www.w3.org/2000/svg">
<path d="M6.74935 27.3796V25.0463H0.916016V21.5469H12.5827V15.713H2.98043C2.39554 15.713 1.90515 15.5152 1.50927 15.1197C1.11377 14.7242 0.916016 14.234 0.916016 13.6491V4.94404C0.916016 4.35915 1.11377 3.86896 1.50927 3.47346C1.90515 3.07796 2.39554 2.88021 2.98043 2.88021H6.74935V0.546875H10.2493V2.88021H16.0827V6.37962H4.41602V12.2135H14.0183C14.6032 12.2135 15.0935 12.4113 15.4894 12.8068C15.8849 13.2023 16.0827 13.6925 16.0827 14.2774V22.9825C16.0827 23.5673 15.8849 24.0575 15.4894 24.453C15.0935 24.8485 14.6032 25.0463 14.0183 25.0463H10.2493V27.3796H6.74935ZM23.5494 41.1556L14.4406 32.0463L16.8994 29.5875L23.5494 36.2375L36.7776 23.0093L39.2364 25.4686L23.5494 41.1556Z" fill="#B20204"/>
</svg>
