<svg width="56" height="56" viewBox="0 0 56 56" fill="none" xmlns="http://www.w3.org/2000/svg">
<path d="M26.6537 43.457H30.1537V41.1237H33.0703C33.5669 41.1237 33.9829 40.9561 34.3181 40.6209C34.6529 40.286 34.8203 39.8703 34.8203 39.3737V32.3737C34.8203 31.8771 34.6529 31.4614 34.3181 31.1265C33.9829 30.7913 33.5669 30.6237 33.0703 30.6237H25.487V27.1237H34.8203V23.6237H30.1537V21.2904H26.6537V23.6237H23.737C23.2404 23.6237 22.8247 23.7913 22.4898 24.1265C22.1546 24.4614 21.987 24.8771 21.987 25.3737V32.3737C21.987 32.8703 22.1546 33.286 22.4898 33.6209C22.8247 33.9561 23.2404 34.1237 23.737 34.1237H31.3203V37.6237H21.987V41.1237H26.6537V43.457ZM14.7181 50.1654C13.5394 50.1654 12.5417 49.757 11.725 48.9404C10.9083 48.1237 10.5 47.126 10.5 45.9473V10.0501C10.5 8.87139 10.9083 7.8737 11.725 7.05703C12.5417 6.24036 13.5394 5.83203 14.7181 5.83203H33.25L45.5 18.082V45.9473C45.5 47.126 45.0917 48.1237 44.275 48.9404C43.4583 49.757 42.4606 50.1654 41.2819 50.1654H14.7181ZM31.5 18.3959V9.33203H14.7181C14.5384 9.33203 14.3739 9.40689 14.2246 9.55661C14.0749 9.70595 14 9.87045 14 10.0501V45.9473C14 46.1269 14.0749 46.2914 14.2246 46.4408C14.3739 46.5905 14.5384 46.6654 14.7181 46.6654H41.2819C41.4616 46.6654 41.6261 46.5905 41.7754 46.4408C41.9251 46.2914 42 46.1269 42 45.9473V18.3959H31.5Z" fill="#B20204"/>
</svg>
