<svg width="131" height="102" viewBox="0 0 131 102" fill="none" xmlns="http://www.w3.org/2000/svg">
<rect width="130" height="102" transform="translate(0.1875)" fill="#B20204"/>
<path d="M57.2285 64.7096C55.8396 64.7096 54.6591 64.2235 53.6868 63.2513C52.7146 62.2791 52.2285 61.0985 52.2285 59.7096H48.0618L48.8118 56.3763H53.5202C53.9924 55.8485 54.548 55.4388 55.1868 55.1471C55.8257 54.8555 56.5063 54.7096 57.2285 54.7096C57.9507 54.7096 58.6313 54.8555 59.2702 55.1471C59.9091 55.4388 60.4646 55.8485 60.9368 56.3763H67.8952L71.3952 41.3763H56.4785L57.1868 38.043H75.5618L74.0202 44.7096H78.8952L83.8952 51.3763L82.2285 59.7096H78.8952C78.8952 61.0985 78.4091 62.2791 77.4368 63.2513C76.4646 64.2235 75.2841 64.7096 73.8952 64.7096C72.5063 64.7096 71.3257 64.2235 70.3535 63.2513C69.3813 62.2791 68.8952 61.0985 68.8952 59.7096H62.2285C62.2285 61.0985 61.7424 62.2791 60.7702 63.2513C59.798 64.2235 58.6174 64.7096 57.2285 64.7096ZM72.1035 53.043H80.1452L80.3118 52.168L77.2285 48.043H73.2702L72.1035 53.043ZM71.3952 41.3763L67.8952 56.3763L67.9785 56.0846L71.3952 41.3763ZM51.3952 53.043V48.043H47.2285L53.0618 39.7096V44.7096H57.2285L51.3952 53.043ZM57.2285 61.3763C57.7007 61.3763 58.0966 61.2166 58.416 60.8971C58.7355 60.5777 58.8952 60.1819 58.8952 59.7096C58.8952 59.2374 58.7355 58.8416 58.416 58.5221C58.0966 58.2027 57.7007 58.043 57.2285 58.043C56.7563 58.043 56.3605 58.2027 56.041 58.5221C55.7216 58.8416 55.5618 59.2374 55.5618 59.7096C55.5618 60.1819 55.7216 60.5777 56.041 60.8971C56.3605 61.2166 56.7563 61.3763 57.2285 61.3763ZM73.8952 61.3763C74.3674 61.3763 74.7632 61.2166 75.0827 60.8971C75.4021 60.5777 75.5618 60.1819 75.5618 59.7096C75.5618 59.2374 75.4021 58.8416 75.0827 58.5221C74.7632 58.2027 74.3674 58.043 73.8952 58.043C73.423 58.043 73.0271 58.2027 72.7077 58.5221C72.3882 58.8416 72.2285 59.2374 72.2285 59.7096C72.2285 60.1819 72.3882 60.5777 72.7077 60.8971C73.0271 61.2166 73.423 61.3763 73.8952 61.3763Z" fill="white"/>
</svg>
