<svg width="131" height="102" viewBox="0 0 131 102" fill="none" xmlns="http://www.w3.org/2000/svg">
<rect width="130" height="102" transform="translate(0.0625)" fill="#B20204"/>
<path d="M70.6868 64.7096C66.9646 64.7096 63.8118 63.418 61.2285 60.8346C58.6452 58.2513 57.3535 55.0985 57.3535 51.3763C57.3535 47.6819 58.6452 44.536 61.2285 41.9388C63.8118 39.3416 66.9646 38.043 70.6868 38.043C74.3813 38.043 77.5271 39.3416 80.1243 41.9388C82.7216 44.536 84.0202 47.6819 84.0202 51.3763C84.0202 55.0985 82.7216 58.2513 80.1243 60.8346C77.5271 63.418 74.3813 64.7096 70.6868 64.7096ZM70.6868 61.3763C73.4646 61.3763 75.8257 60.4041 77.7702 58.4596C79.7146 56.5152 80.6868 54.1541 80.6868 51.3763C80.6868 48.5985 79.7146 46.2374 77.7702 44.293C75.8257 42.3485 73.4646 41.3763 70.6868 41.3763C67.9091 41.3763 65.548 42.3485 63.6035 44.293C61.6591 46.2374 60.6868 48.5985 60.6868 51.3763C60.6868 54.1541 61.6591 56.5152 63.6035 58.4596C65.548 60.4041 67.9091 61.3763 70.6868 61.3763ZM74.4785 57.5846L76.8535 55.2096L72.3535 50.7096V44.7096H69.0202V52.0846L74.4785 57.5846ZM49.0202 46.3763V43.043H55.6868V46.3763H49.0202ZM47.3535 53.043V49.7096H55.6868V53.043H47.3535ZM49.0202 59.7096V56.3763H55.6868V59.7096H49.0202Z" fill="white"/>
</svg>
