<svg width="131" height="102" viewBox="0 0 131 102" fill="none" xmlns="http://www.w3.org/2000/svg">
<rect width="130" height="102" transform="translate(0.875)" fill="#B20204"/>
<path d="M64.3757 61.3492L59.0361 56.0096L60.8436 54.2021L64.3757 57.7342L71.4077 50.7021L73.2152 52.5096L64.3757 61.3492ZM54.9719 67.2084C54.13 67.2084 53.4173 66.9167 52.834 66.3334C52.2507 65.75 51.959 65.0374 51.959 64.1954V41.8879C51.959 41.046 52.2507 40.3334 52.834 39.75C53.4173 39.1667 54.13 38.875 54.9719 38.875H57.2794V35.3496H59.8436V38.875H72.4719V35.3496H74.9719V38.875H77.2794C78.1213 38.875 78.834 39.1667 79.4173 39.75C80.0007 40.3334 80.2923 41.046 80.2923 41.8879V64.1954C80.2923 65.0374 80.0007 65.75 79.4173 66.3334C78.834 66.9167 78.1213 67.2084 77.2794 67.2084H54.9719ZM54.9719 64.7084H77.2794C77.4077 64.7084 77.5252 64.6549 77.6319 64.5479C77.7388 64.4413 77.7923 64.3238 77.7923 64.1954V48.5546H54.459V64.1954C54.459 64.3238 54.5125 64.4413 54.6194 64.5479C54.7261 64.6549 54.8436 64.7084 54.9719 64.7084ZM54.459 46.0546H77.7923V41.8879C77.7923 41.7596 77.7388 41.6421 77.6319 41.5354C77.5252 41.4285 77.4077 41.375 77.2794 41.375H54.9719C54.8436 41.375 54.7261 41.4285 54.6194 41.5354C54.5125 41.6421 54.459 41.7596 54.459 41.8879V46.0546Z" fill="white"/>
</svg>
