<svg width="39" height="31" viewBox="0 0 39 31" fill="none" xmlns="http://www.w3.org/2000/svg">
<path fill-rule="evenodd" clip-rule="evenodd" d="M17.3558 19.4843V4.47568C17.3558 2.10738 15.436 0.1875 13.0677 0.1875H4.49131C2.12301 0.1875 0.203125 2.10738 0.203125 4.47568V13.0521C0.203125 15.4204 2.12301 17.3402 4.49131 17.3402H10.9236V19.4843C10.9634 21.5611 9.50898 23.3679 7.47159 23.7725C6.99626 23.8793 6.65277 24.2934 6.6354 24.7802V29.0685C6.61946 29.4011 6.75316 29.7237 6.9999 29.9475C7.22796 30.1507 7.53321 30.2447 7.83609 30.2048C13.2836 29.5909 17.3904 24.9662 17.3558 19.4843ZM25.9327 0.1875H34.5091C36.8773 0.1875 38.7973 2.10738 38.7973 4.47568V19.4843C38.8207 24.958 34.7168 29.5704 29.2774 30.1833C28.9746 30.2233 28.6694 30.1293 28.4413 29.926C28.2117 29.717 28.0795 29.4218 28.0768 29.1113V24.8231C28.0746 24.3201 28.4223 23.8832 28.913 23.7725C30.9504 23.3679 32.4048 21.5611 32.3649 19.4843V17.3402H25.9327C23.5644 17.3402 21.6446 15.4204 21.6446 13.0521V4.47568C21.6446 2.10738 23.5644 0.1875 25.9327 0.1875Z" fill="#B20204"/>
</svg>
